<?xml version="1.0" encoding="UTF-8"?><svg xmlns="http://www.w3.org/2000/svg" viewBox="0 0 1260.84 863.26"><defs><style>.cls-1{fill:#fff;}</style></defs><g id="F1_Year"><g><path class="cls-1" d="M182.87,150.57l-58.55,56.8H49.64l92.91-92.21c34.53-34.18,51.19-39.79,110.09-39.79h232.62l-50.49,49.43h-175.47c-44,0-53.36,3.39-76.43,25.77Zm244.37-17.88h-166.88c-44.31,0-51.25,3.39-71.35,23.49l-51.19,51.19h69.24l16.48-16.48c10.88-10.88,15.75-11.92,37.69-11.92h119.73l46.28-46.28Zm18.06,74.68l132.35-132h-82.22l-132,132h81.86Z"/><path class="cls-1" d="M500.88,207.37c-4.16,0-7.62-1.39-10.38-4.18-2.76-2.78-4.14-6.21-4.14-10.28s1.37-7.49,4.11-10.26c2.74-2.77,6.19-4.15,10.35-4.15s7.61,1.39,10.33,4.18c2.72,2.79,4.08,6.21,4.08,10.28s-1.35,7.49-4.05,10.26c-2.7,2.77-6.14,4.15-10.3,4.15Zm-.08-26.6c-3.41,0-6.27,1.18-8.57,3.54-2.3,2.36-3.45,5.23-3.45,8.59s1.15,6.23,3.45,8.59c2.3,2.36,5.16,3.54,8.57,3.54s6.27-1.17,8.57-3.52c2.3-2.34,3.45-5.21,3.45-8.59s-1.15-6.26-3.45-8.62c-2.3-2.36-5.16-3.54-8.57-3.54Zm-2.82,14.54v5.66h-3.18v-16.02h6.03c2.08,0,3.64,.39,4.69,1.16,1.04,.78,1.56,1.94,1.56,3.49s-.21,2.71-.63,3.46c-.42,.76-1.14,1.37-2.16,1.82l3.01,6.08h-3.34l-2.74-5.66h-3.23Zm-.05-7.88v5.39h3.23c.99,0,1.7-.21,2.14-.63,.44-.42,.66-1.11,.66-2.06,0-1.8-1.13-2.7-3.4-2.7h-2.63Z"/></g><g><path class="cls-1" d="M64.42,780.97c0-11.36,8.56-20.57,19.12-20.57h38.24v-13.72H49.95v13.72h8.09c-4,5.73-6.37,12.85-6.37,20.57v34.28h89.22v-13.71H64.42v-20.57Z"/><path class="cls-1" d="M160.01,746.69v41.14h50.98v-41.14h-50.98Zm38.24,27.43h-25.49v-13.71h25.49v13.71Z"/></g><path class="cls-1" d="M159.26,787.83h50.98v-41.14s-50.98,0-50.98,0v41.14Zm12.75-27.43h25.49s0,13.71,0,13.71h-25.49v-13.71Zm233.46-27.42c-6.25-8.33-16.21-13.72-27.43-13.72H165.63c-10.42,0-19.68,5.39-25.49,13.71-5.81-8.33-15.07-13.71-25.49-13.71H49.83v13.71H114.65c10.56,0,19.12,9.21,19.12,20.57s-8.56,20.57-19.12,20.57h-38.24v13.71h57.99c.87,4.63,2.62,8.92,5.04,12.67H63.67v-19.52c0-11.36,8.56-20.57,19.12-20.57h38.23v-13.72H49.83v13.72h7.46c-4,5.73-6.37,12.85-6.37,20.57v34.28h89.21v-13.71h0c5.81,8.33,15.07,13.71,25.49,13.71h38.23c7.17,0,13.79-2.55,19.12-6.86v6.86h155.05c11.21,0,21.17-5.39,27.43-13.72,0,0,5.17-6.38,6.69-15.34v-37.88c-1.53-8.97-6.69-15.34-6.69-15.34Zm-182.48,47.99c0,9.11-5.5,16.82-13.12,19.52h-50.23c-7.62-2.71-13.12-10.42-13.12-19.52v-27.43c0-11.36,8.56-20.57,19.12-20.57h16.19s22.04,0,22.04,0c10.56,0,19.12,9.21,19.12,20.57v27.43Zm175.62-1.03c0,11.36-9.21,20.57-20.57,20.57l-141.44-.02v-19.52c0-11.36,9.21-20.57,20.57-20.57h48v-13.71h-70.02s-.06,0-.06,0h0c-.96-5.06-2.95-9.72-5.73-13.71h68.95c11.36,0,20.57,9.21,20.57,20.57,0,11.36-9.21,20.57-20.57,20.57h-48.75v13.72h.76s134.58,0,134.58,0v-13.71h0s-56.33,0-56.33,0c1.24-2.07,2.3-4.3,3.14-6.65,.17-.23,.3-.83,.42-1.41,.05-.2,.1-.4,.15-.63,0-.03,.02-.08,.03-.11v-.05c.22-1.21,.39-2.9,.47-4.86h52.12v-13.71h-53.1c-1.79-8.1-6.06-13.71-6.06-13.71h52.3c11.36,0,20.57,9.21,20.57,20.57v26.4Z"/></g><g id="Sponsor_Logo"><g><g><g><path class="cls-1" d="M925.26,158.05c-4.16,0-7.54,3.36-7.54,7.52s3.38,7.52,7.54,7.52,7.52-3.36,7.52-7.52-3.37-7.53-7.52-7.52Zm0,13.53c-3.32,0-6.02-2.69-6.02-6s2.7-6,6.02-6,5.99,2.68,5.99,6-2.68,6-5.99,6Z"/><path class="cls-1" d="M927.28,165.56c.61-.23,1.21-.98,1.21-2.06,0-1.73-1.56-2.26-2.47-2.26h-3.88v8.1h1.86v-3.16h.7c.94,0,1.48,.25,1.74,1.12,.19,.6,.28,1.18,.66,2.04,.78,0,1.11,0,2.02,0-.22-.47-.61-1.1-.75-1.98-.13-.87-.43-1.37-1.1-1.81Zm-1.77-.98h-1.49v-1.86h1.31c.57,0,1.25,.23,1.25,.88,0,.56-.43,.98-1.07,.98Z"/></g><g><path class="cls-1" d="M692.36,202.68c-2.13,2.13-4.9,4.26-7.63,5.12-2.57,.83-9.9,1.47-12.06-4.58-.47-1.31-.09-1.71,1.1-2.06,1.77-.53,6.32-1.86,11.13-3.67,4.36-1.63,8.25-3.63,9.47-4.44,2.18-1.43,2.51-3.45,1.55-5.62-3.06-6.88-9.99-14.09-21.51-11.9-9.15,1.75-15.71,9.98-15.71,19.41,0,11.67,7.03,18.5,15.98,20.61,8.27,1.97,18-2.04,22.17-8.79,1.65-2.6-3-5.68-4.5-4.09Zm-20.73-9.19c-.9-2.47-.18-10.05,3.99-11.48,4.39-1.5,7.09,.76,8.4,5.18,.49,1.64,.38,3.37-.16,4.02-.78,.94-2.17,1.51-3.41,1.93l-3.29,1.09c-3.23,1.1-4.77,1.32-5.53-.74Z"/><path class="cls-1" d="M799.57,202.68c-2.13,2.13-4.9,4.26-7.63,5.12-2.57,.83-9.9,1.47-12.06-4.58-.47-1.31-.09-1.71,1.1-2.06,1.77-.53,6.32-1.86,11.13-3.67,4.36-1.63,8.26-3.63,9.47-4.44,2.18-1.43,2.51-3.45,1.55-5.62-3.07-6.88-9.99-14.09-21.51-11.9-9.15,1.75-15.71,9.98-15.71,19.41,0,11.67,7.03,18.5,15.98,20.61,8.27,1.97,18-2.04,22.16-8.79,1.65-2.6-3-5.68-4.5-4.09Zm-20.73-9.19c-.54-1.48-.5-4.78,.51-7.51,.68-1.83,1.7-3.26,3.48-3.97,2.01-.81,3.72-.58,5.06,.19,1.54,.88,2.63,2.63,3.33,4.99,.49,1.64,.38,3.37-.16,4.02-.78,.94-1.99,1.42-3.41,1.93-1.42,.51-2.69,.92-3.29,1.11-3.25,1.02-4.77,1.3-5.53-.76Z"/><path class="cls-1" d="M881.29,202.68c-2.13,2.13-4.9,4.26-7.63,5.12-2.57,.83-9.9,1.47-12.06-4.58-.47-1.31-.09-1.71,1.1-2.06,1.77-.53,6.32-1.86,11.13-3.67,4.36-1.63,8.26-3.63,9.47-4.44,2.18-1.43,2.51-3.45,1.55-5.62-3.06-6.88-9.99-14.09-21.51-11.9-9.15,1.75-15.71,9.98-15.71,19.41,0,11.67,7.03,18.5,15.98,20.61,8.27,1.97,18-2.04,22.17-8.79,1.65-2.6-3-5.68-4.5-4.09Zm-20.73-9.19c-.54-1.48-.5-4.78,.52-7.51,.68-1.83,1.7-3.26,3.48-3.97,2.01-.81,3.72-.58,5.07,.19,1.54,.88,2.63,2.63,3.33,4.99,.49,1.64,.38,3.37-.16,4.02-.78,.94-1.99,1.42-3.41,1.93-1.42,.51-2.69,.92-3.29,1.11-3.25,1.02-4.77,1.3-5.53-.76Z"/><path class="cls-1" d="M640.22,204.9c0,1.56-.49,3.28-1.7,3.82l-2.61,1.18c-.47,.21-.6,.56-.6,1.08,0,.13,0,.21,.04,.39l.31,2.96c.14,.81,.69,.94,1.76,.94h18.91c1.07,0,1.62-.13,1.75-.94l.31-2.96c.03-.17,.04-.26,.04-.39,0-.52-.13-.86-.6-1.08l-2.61-1.18c-1.21-.54-1.7-2.25-1.7-3.82v-32.75c0-1.56,.49-3.28,1.7-3.82l2.61-1.18c.47-.21,.6-.56,.6-1.08,0-.13-.01-.21-.04-.39l-.31-2.22c-.14-.81-.69-.94-1.75-.94h-18.02c-1.07,0-1.62,.13-1.75,.94l-.31,2.22c-.03,.17-.04,.26-.04,.39,0,.52,.13,.86,.6,1.08l2.13,1.18c1.22,.69,1.3,2.25,1.3,3.82v9.13c0,.64-.52,1.15-1.15,1.15h-10.24c-.64,0-1.15-.51-1.15-1.15v-9.13c0-1.56,.08-3.12,1.3-3.82l2.13-1.18c.47-.21,.6-.56,.6-1.08,0-.13-.01-.21-.04-.39l-.31-2.22c-.14-.81-.69-.94-1.76-.94h-18.02c-1.07,0-1.62,.13-1.76,.94l-.31,2.22c-.03,.17-.04,.26-.04,.39,0,.52,.13,.86,.6,1.08l2.61,1.18c1.21,.54,1.7,2.25,1.7,3.82v32.75c0,1.56-.49,3.28-1.7,3.82l-2.61,1.18c-.47,.21-.6,.56-.6,1.08,0,.13,.01,.21,.04,.39l.31,2.96c.14,.81,.69,.94,1.76,.94h18.9c1.07,0,1.62-.13,1.76-.94l.31-2.96c.03-.17,.04-.26,.04-.39,0-.52-.13-.86-.6-1.08l-2.61-1.18c-1.21-.54-1.7-2.25-1.7-3.82v-13.32c0-.64,.51-1.15,1.15-1.15h10.24c.64,0,1.15,.52,1.15,1.15v13.32Z"/><g><path class="cls-1" d="M714.74,168.04c0,3.64-3.05,6.59-6.82,6.59s-6.82-2.95-6.82-6.59,3.05-6.59,6.82-6.59,6.82,2.95,6.82,6.59Z"/><path class="cls-1" d="M700.45,215.26c-1.02,0-1.55-.13-1.68-.9l-.3-2.95c-.02-.17-.02-.25-.02-.37,0-.5,.14-.8,.56-1.03l2.03-1.13c1.13-.55,1.63-2.16,1.63-3.66v-18.7c0-1.56-.27-3.56-1.64-4.25l-1.3-.75c-.47-.21-.6-.56-.6-1.08,0-.13,0-.21,.04-.39l.31-2.22c.14-.81,.69-.94,1.76-.94h12.77c.64,0,1.15,.51,1.15,1.15v27.18c0,1.5,.5,3.12,1.63,3.66l2.03,1.13c.43,.23,.56,.53,.56,1.03,0,.13,0,.21-.02,.37l-.29,2.95c-.13,.77-.66,.9-1.68,.9h-16.92Z"/></g><path class="cls-1" d="M739.1,178.87s.72-.35,2.01-.98c2.56-1.2,7.56-3.35,11.7-2.03,3.59,1.14,6.68,3.75,6.68,10.58v20.7c0,.88,.04,1.25,.45,1.47,.55,.3,1.51-.6,2.42-1.07,.92-.48,1.44,.08,2,.71,.5,.55,1.09,1.32,.61,2.33-1.53,3.2-4.95,5.04-8.96,5.04-3.79,0-8.61-2.17-8.61-7.85v-19.92c0-3.05-2.21-4.1-3.93-3.89-2.59,.32-4.47,2.49-4.47,6.35v14.89c0,1.5,.5,3.12,1.63,3.66l2.03,1.13c.43,.23,.56,.53,.56,1.03,0,.13,0,.21-.02,.37l-.3,2.95c-.13,.77-.66,.9-1.68,.9h-16.92c-1.02,0-1.55-.13-1.68-.9l-.29-2.95c-.02-.17-.02-.25-.02-.37,0-.5,.14-.8,.56-1.03l2.03-1.13c1.13-.55,1.63-2.16,1.63-3.66v-18.7c0-1.56-.27-3.56-1.64-4.25l-1.3-.75c-.47-.21-.6-.56-.6-1.08,0-.13,.01-.21,.04-.39l.31-2.22c.14-.81,.69-.94,1.75-.94h12.03c.95,0,1.31,.54,1.59,1.15l.39,.84Z"/><path class="cls-1" d="M904.23,178.87s.72-.35,2.01-.98c2.56-1.2,7.56-3.35,11.7-2.03,3.59,1.14,6.68,3.75,6.68,10.58v20.7c0,.88,.04,1.25,.45,1.47,.55,.3,1.51-.6,2.42-1.07,.93-.48,1.44,.08,2,.71,.5,.55,1.09,1.32,.61,2.33-1.53,3.2-4.95,5.04-8.96,5.04-3.79,0-8.61-2.17-8.61-7.85v-19.92c0-3.05-2.21-4.1-3.92-3.89-2.59,.32-4.47,2.49-4.47,6.35v14.89c0,1.5,.5,3.12,1.63,3.66l2.03,1.13c.43,.23,.56,.53,.56,1.03,0,.13,0,.21-.02,.37l-.3,2.95c-.13,.77-.66,.9-1.68,.9h-16.92c-1.03,0-1.55-.13-1.68-.9l-.29-2.95c-.02-.17-.02-.25-.02-.37,0-.5,.14-.8,.56-1.03l2.03-1.13c1.13-.55,1.63-2.16,1.63-3.66v-18.7c0-1.56-.27-3.56-1.64-4.25l-1.3-.75c-.47-.21-.6-.56-.6-1.08,0-.13,.01-.21,.04-.39l.31-2.22c.14-.81,.69-.94,1.76-.94h12.03c.95,0,1.31,.54,1.59,1.15l.39,.84Z"/><path class="cls-1" d="M842.96,205.72c.9,1.44,1.99,2.6,3.12,3.15l2.03,1.13c.43,.23,.56,.53,.56,1.03,0,.13,0,.21-.02,.37l-.29,2.95c-.13,.77-.66,.9-1.68,.9h-10.22c-1.75,0-1.88-.51-2.67-1.93l-8.57-15.6-3.22,3.09v4.39c0,1.5,.71,3.08,1.87,3.66l2.03,1.13c.43,.23,.56,.53,.56,1.03,0,.13,0,.21-.02,.37l-.29,2.95c-.13,.77-.66,.9-1.68,.9h-16.92c-1.02,0-1.55-.13-1.68-.9l-.29-2.95c-.03-.17-.02-.25-.02-.37,0-.5,.14-.8,.56-1.03l2.03-1.13c1.13-.55,1.63-2.16,1.63-3.66v-33.48c0-1.5-.47-3.07-1.63-3.66l-2.03-1.13c-.42-.23-.56-.54-.56-1.03,0-.12,0-.2,.02-.37l.29-2.11c.13-.77,.66-.9,1.68-.9h12.26c1.21,0,2.18,.98,2.18,2.18v25.41l5.45-4.92c.78-.67,2.05-1.79,2.55-2.28,.5-.49,.6-1.23-.11-1.53l-1.93-.87c-.43-.19-.55-.51-.55-.98,0-.12,0-.19,.03-.35l.28-2.7c.13-.73,.63-.85,1.6-.85h14.69c.97,0,1.48,.12,1.6,.85l.28,2.7c.02,.16,.03,.24,.03,.35,.03,.59-.66,.87-1.09,1.06,0,0-1.04,.3-1.99,.84-.95,.54-1.96,1.35-3.24,2.5l-5.66,5.44,9.01,16.35Z"/></g></g><g><g><path class="cls-1" d="M830.06,133.92l.02-.25h-1.68c-.06,1.5,.85,2.51,2.37,2.51,1.66,0,2.66-1.01,2.66-2.67,0-.96-.38-1.88-1.38-2.12v-.03c.88-.35,1.11-1.26,1.11-2.11,0-1.44-.83-2.35-2.28-2.35-1.65,0-2.16,1.2-2.11,2.66h1.56v-.19c0-.39,.08-.93,.6-.93s.62,.52,.62,.92c0,1-.41,1.19-1.38,1.19v1.56c1.02-.03,1.35,.25,1.35,1.26,0,.53-.05,1.27-.77,1.27-.48,0-.67-.41-.67-.7"/><polygon class="cls-1" points="827.2 127.03 822.34 127.03 822.34 128.58 824.76 128.58 821.95 136.04 823.81 136.04 827.2 127.03"/><path class="cls-1" d="M818.57,131.19v-.02c.83-.28,1.23-1.05,1.23-1.9,0-1.32-.89-2.36-2.25-2.36s-2.26,1.04-2.26,2.36c0,.86,.43,1.63,1.22,1.9v.03c-1.11,.37-1.56,1.22-1.56,2.38,0,1.48,1.09,2.62,2.6,2.62s2.57-1.13,2.57-2.62c0-1.13-.43-2.03-1.56-2.38m-1.05-2.9c.48,0,.55,.62,.55,.96s0,1.01-.55,1.01c-.45,0-.5-.69-.5-1.02s.07-.95,.5-.95m.02,6.33c-.62,0-.75-.82-.75-1.27s.13-1.31,.74-1.31,.79,.86,.79,1.31-.17,1.27-.78,1.27"/><polygon class="cls-1" points="812.52 127.03 809.93 127.03 809.93 128.58 810.8 128.58 810.8 136.04 812.52 136.04 812.52 127.03"/></g><g><polygon class="cls-1" points="711.79 127.03 707.85 127.03 707.85 136.04 711.81 136.04 711.81 134.36 709.79 134.36 709.79 132.33 711.54 132.33 711.54 130.66 709.79 130.66 709.79 128.7 711.79 128.7 711.79 127.03"/><path class="cls-1" d="M729.22,133.92c-.64,0-1.14,.5-1.14,1.12s.5,1.14,1.14,1.14,1.11-.51,1.11-1.14-.48-1.12-1.11-1.12"/><polygon class="cls-1" points="726.75 127.03 721.72 127.03 721.72 128.7 723.25 128.7 723.25 136.04 725.21 136.04 725.21 128.7 726.75 128.7 726.75 127.03"/><path class="cls-1" d="M718.99,129.06v-1.74c-.55-.28-1.11-.43-1.75-.43-1.68,0-2.58,1.21-2.58,2.64,0,1.3,.69,1.98,1.82,2.66,.54,.38,1.16,.63,1.16,1.31,0,.6-.49,.99-1.14,.99-.56,0-1.02-.18-1.47-.48v1.71c.45,.29,1.13,.46,1.68,.46,1.83,0,2.84-1.21,2.84-2.81,0-2.44-2.98-2.53-2.98-4,0-.54,.39-.89,.98-.89,.55,0,1.02,.27,1.43,.58"/></g><g><path class="cls-1" d="M803.29,143.05c.23,.83-.18,1.65-.58,1.99-.33,.29-.65,.51-.65,.51,0,0-.31,.24-.68,.46-.45,.27-1.35,.41-2.07-.07,0,0-1.15-.71-3.01-1.97-5.91-3.99-19.11-12.95-26.32-18.08-7.21,5.13-20.41,14.08-26.32,18.08-1.86,1.26-3.01,1.97-3.01,1.97-.72,.48-1.62,.34-2.07,.07-.37-.22-.68-.46-.68-.46,0,0-.32-.22-.65-.51-.4-.35-.81-1.16-.58-1.99,0,0,.06-.24,.17-.67,.12,.23,.26,.42,.41,.54,.33,.29,.65,.51,.65,.51,0,0,.31,.24,.68,.46,.45,.27,1.35,.41,2.07-.07,0,0,1.15-.71,3.01-1.97,5.91-4,19.11-12.95,26.32-18.08,7.21,5.13,20.41,14.08,26.32,18.08,1.86,1.26,3.01,1.97,3.01,1.97,.72,.48,1.62,.34,2.07,.07,.37-.22,.68-.46,.68-.46,0,0,.32-.22,.65-.51,.15-.13,.29-.31,.41-.54,.11,.43,.17,.67,.17,.67Zm-56.63-36.21c-7.11-5.28-19.7-15.06-25.33-19.45-1.77-1.38-2.81-2.26-2.81-2.26-.21-.17-.37-.38-.49-.6-.03,.09-.14,.41-.22,.76-.12,.52,.03,1.41,.7,1.95,0,0,1.03,.87,2.81,2.26,5.49,4.28,17.6,13.69,24.79,19.05,.18-.6,.36-1.17,.53-1.72Zm75.25-22.3c-.12,.22-.27,.43-.49,.6,0,0-1.03,.87-2.81,2.26-5.63,4.39-18.22,14.17-25.33,19.45,.17,.55,.35,1.12,.54,1.72,7.19-5.36,19.3-14.77,24.79-19.05,1.77-1.38,2.81-2.26,2.81-2.26,.68-.54,.82-1.44,.7-1.95-.08-.36-.19-.67-.22-.76Z"/><path class="cls-1" d="M751.03,105.43l-11.38,34.97c-.02,.06,0,.13,.05,.17,0,0,.08,.07,.17,.14,.09,.07,.19,.12,.19,.12,.05,.04,.12,.04,.17,0l29.74-21.63,29.74,21.63c.05,.04,.12,.04,.17,0,0,0,.1-.06,.19-.12,.09-.07,.17-.14,.17-.14,.06-.04,.07-.11,.05-.16l-11.38-34.97,29.76-21.6c.05-.04,.07-.1,.06-.16,0,0-.03-.11-.06-.22-.03-.11-.08-.21-.08-.21-.02-.06-.08-.1-.14-.1l-36.78,.02-11.35-34.98c-.02-.06-.07-.1-.14-.1,0,0-.11-.01-.22-.01s-.22,.01-.22,.01c-.07,0-.12,.04-.14,.1l-11.35,34.98-36.78-.02c-.06,0-.12,.04-.14,.1,0,0-.04,.1-.08,.21-.03,.11-.06,.21-.06,.21-.02,.06,0,.13,.05,.17l29.76,21.6Z"/></g></g></g></g><g id="Text"><g><path class="cls-1" d="M83.25,335.06H49.95v-96.06h85.81v29.46h-52.51v8.07h52.51v24.34h-52.51v34.2Z"/><path class="cls-1" d="M189.95,334.99c-6.88,0-13.39-1.19-19.53-3.56-6.14-2.38-11.46-5.69-15.97-9.95-4.5-4.26-8.09-9.35-10.75-15.29-2.66-5.94-3.99-12.38-3.99-19.35,0-6.88,1.33-13.29,3.99-19.22,2.66-5.94,6.24-11.04,10.75-15.29,4.5-4.26,9.83-7.59,15.97-10.01,6.14-2.41,12.65-3.62,19.53-3.62,6.88,0,13.39,1.21,19.53,3.62,6.14,2.42,11.46,5.75,15.97,10.01,4.5,4.26,8.09,9.36,10.75,15.29,2.66,5.94,3.99,12.35,3.99,19.22,0,6.96-1.33,13.41-3.99,19.35-2.66,5.94-6.24,11.04-10.75,15.29-4.5,4.26-9.83,7.58-15.97,9.95-6.14,2.38-12.65,3.56-19.53,3.56Zm0-29.36c5.49,0,9.95-1.78,13.39-5.34,3.44-3.56,5.16-8.04,5.16-13.45,0-5.41-1.72-9.89-5.16-13.45s-7.9-5.34-13.39-5.34-9.93,1.78-13.33,5.34c-3.4,3.56-5.1,8.05-5.1,13.45,0,5.41,1.7,9.89,5.1,13.45,3.4,3.56,7.84,5.34,13.33,5.34Z"/><path class="cls-1" d="M343.26,335.06h-39.45l-26.26-36.37v36.37h-33.3v-96.06h65.7c5.46,0,10.29,.88,14.47,2.63,4.18,1.75,7.66,4.03,10.44,6.85,2.75,2.77,4.88,6.09,6.28,9.73,1.39,3.55,2.1,7.33,2.11,11.14,0,3.51-.59,6.99-1.73,10.31-1.13,3.32-2.86,6.41-5.12,9.09-2.26,2.69-5.1,4.97-8.52,6.85-3.42,1.88-7.34,3.12-11.78,3.71l27.15,35.73Zm-66.98-69.54v11.91h26.7c3.29-.01,5.95-2.67,5.96-5.96-.01-3.29-2.67-5.95-5.96-5.96h-26.7Z"/><path class="cls-1" d="M495.14,274.78v60.2h-30.74v-60.71c0-1.75-2.52-3.19-4.35-3.32-1.76,.13-3.59,1.57-3.59,3.32v26.8c0,4.93-.75,9.49-2.24,13.68-1.49,4.2-3.67,7.77-6.54,10.72-2.86,2.95-6.38,5.27-10.53,6.96s-8.86,2.54-14.11,2.54c-.32,0-.64,0-.96,0-.32,0-.64,0-.96,0-3.02,0-4.73-.27-6.36-.8-1.97-.4-3.9-.98-5.76-1.74-4.12-1.69-7.59-4.04-10.41-7.02-2.83-2.99-4.98-6.56-6.48-10.72-1.49-4.16-2.24-8.7-2.24-13.62v-25.52c0-2.54-2.07-4.6-4.61-4.61-2.54,0-4.6,2.07-4.61,4.61v59.43h-33.3v-60.2c0-5.04,.9-9.75,2.69-14.15,1.79-4.4,4.31-8.2,7.56-11.4,3.24-3.2,7.11-5.72,11.59-7.56,4.48-1.84,9.41-2.75,14.79-2.75,5.72,0,9.5,.92,13.9,2.75,4.4,1.83,8.07,4.42,11.01,7.75,2.94,3.33,5.19,7.34,6.72,12.04,1.54,4.7,2.31,9.82,2.31,15.37v22.8c0,1.84,1.49,3.33,3.33,3.33s3.33-1.49,3.33-3.33v-22.8c0-5.46,.77-10.52,2.3-15.18,1.54-4.65,3.82-8.67,6.85-12.04,3.03-3.37,6.83-6,11.4-7.88,4.57-1.88,8.6-2.82,14.66-2.82,5.12,0,9.84,.92,14.15,2.75,4.31,1.83,8.05,4.35,11.21,7.56,3.16,3.2,5.61,7,7.36,11.4,1.75,4.4,2.62,9.12,2.62,14.15Z"/><path class="cls-1" d="M599.49,286.7h0c0,.05,0,.1,0,.15,0,6.96-1.33,13.41-3.99,19.35-2.66,5.94-6.25,11.04-10.75,15.29-4.5,4.26-9.83,7.58-15.97,9.95-6.14,2.38-12.65,3.56-19.53,3.56s-13.39-1.19-19.53-3.56c-6.14-2.37-11.47-5.69-15.97-9.95-4.5-4.26-8.09-9.35-10.75-15.29-2.66-5.94-3.99-12.38-3.99-19.35,0-.05,0-.1,0-.15v-47.75h31.81v47.75h0c0,.05,0,.1,0,.15,0,5.4,1.7,9.89,5.1,13.45,3.4,3.56,7.84,5.34,13.33,5.34s9.95-1.78,13.39-5.34c3.44-3.56,5.16-8.04,5.16-13.45,0-.05,0-.1,0-.15v-47.75h31.69v47.75Z"/><path class="cls-1" d="M688.08,335.06h-84.53v-96.06h33.3v66.6h51.23v29.46Z"/><path class="cls-1" d="M810.17,335.06h-35.19l-7.19-19.08h-33.94l-7.07,19.08h-34.66l28.15-70.57c3.41-8.45,7.71-14.81,12.87-19.08,5.17-4.27,11.25-6.4,18.25-6.4s13.08,2.13,18.25,6.4c5.16,4.27,9.41,10.63,12.74,19.08l27.78,70.57Zm-67.1-47.39h15.24l-7.68-18.06-7.56,18.06Z"/><path class="cls-1" d="M919.05,335.07h-76.84v-31.25h21.77v-34.07h-21.77v-30.74h29.46c7.51,0,13.66,2.39,18.44,7.17,4.78,4.78,7.17,10.93,7.17,18.44v39.19h21.77v31.25Z"/><path class="cls-1" d="M83.25,455.06H49.95v-96.06h33.3v32.02h35.73v-32.02h33.3v96.06h-33.3v-32.79h-35.73v32.79Z"/><path class="cls-1" d="M245.22,455.06h-89.01v-96.06h89.01v29.46h-55.07v8.2h53.82l-.03,20.75h-53.79v8.2h55.07v29.46Z"/><path class="cls-1" d="M282.57,455.06h-33.3v-96.06h33.3v96.06Z"/><path class="cls-1" d="M397.28,358.96v72.62c0,3.93-.62,7.37-1.86,10.31-1.24,2.95-2.86,5.38-4.87,7.3-2.03,1.94-4.46,3.42-7.11,4.36-2.71,.98-5.57,1.48-8.45,1.47-4.61,0-8.6-1-11.98-3.01-3.37-2.01-6.94-5.19-10.69-9.54l-16.01-18.48-16.39-18.47v49.5h-33.3v-72.62c0-3.93,.62-7.37,1.86-10.31,1.24-2.95,2.86-5.38,4.87-7.3,2.03-1.94,4.46-3.42,7.11-4.35,2.71-.98,5.57-1.48,8.45-1.47,4.61,0,8.6,1,11.98,3.01,3.37,2.01,6.94,5.19,10.69,9.54l3.26,3.77v-.02c1.26,1.16,2.42,2.32,3.39,3.42l25.74,29.02v-48.73h33.3Z"/><path class="cls-1" d="M490.34,455.06h-89.01v-96.06h89.01v29.46h-55.07v8.2h53.82l-.03,20.75h-53.79v8.2h55.07v29.46Z"/><path class="cls-1" d="M527.69,455.06h-33.3v-96.06h33.3v96.06Zm71.21,0h-40.98l-18.32-26c-2.22-3.16-4.4-6.46-6.53-9.93-2.14-3.46-3.2-7.49-3.2-12.1,0-4.61,1.07-8.65,3.2-12.1,2.13-3.46,4.31-6.77,6.53-9.93l18.32-26h40.98l-34.45,48.03,34.45,48.03Z"/><path class="cls-1" d="M691.9,455.06h-89.01v-96.06h89.01v29.46h-55.07v8.2h53.82l-.03,20.75h-53.79v8.2h55.07v29.46Z"/><path class="cls-1" d="M806.61,358.96v72.62c0,3.93-.62,7.37-1.86,10.31-1.24,2.95-2.86,5.38-4.87,7.3-2.03,1.94-4.46,3.42-7.11,4.36-2.71,.98-5.57,1.48-8.45,1.47-4.61,0-8.6-1-11.97-3.01-3.37-2.01-6.94-5.19-10.69-9.54l-16.01-18.48-16.39-18.47v49.5h-33.3v-72.62c0-3.93,.62-7.37,1.86-10.31,1.24-2.95,2.86-5.38,4.87-7.3,2.03-1.94,4.46-3.42,7.11-4.35,2.71-.98,5.57-1.48,8.45-1.47,4.61,0,8.6,1,11.98,3.01,3.37,2.01,6.94,5.19,10.69,9.54l3.26,3.77v-.02c1.25,1.16,2.42,2.32,3.39,3.42l25.75,29.02v-48.73h33.3Z"/><path class="cls-1" d="M95.74,575.06H50.02v-96.06h44.44c8.28,0,15.9,1.19,22.86,3.58,6.96,2.39,12.87,5.7,17.74,9.93,4.82,4.16,8.7,9.29,11.4,15.05,2.73,5.81,4.1,12.08,4.1,18.83s-1.22,13.09-3.65,19.02c-2.39,5.87-6.01,11.16-10.63,15.5-4.65,4.4-10.4,7.86-17.23,10.37-6.83,2.52-14.6,3.78-23.31,3.78Zm-12.42-29.46h9.61c3.1,.01,6.19-.31,9.22-.96,2.9-.64,5.42-1.71,7.56-3.2,2.15-1.51,3.9-3.5,5.12-5.83,1.28-2.39,1.92-5.34,1.92-8.84,0-3.07-.64-5.76-1.92-8.07-1.26-2.28-3.01-4.25-5.12-5.76-2.14-1.54-4.65-2.67-7.56-3.39-3.02-.74-6.11-1.11-9.22-1.09h-9.61v37.14Z"/><path class="cls-1" d="M255.04,526.7h0c0,.05,0,.1,0,.15,0,6.96-1.33,13.41-3.99,19.35-2.66,5.94-6.25,11.04-10.75,15.29-4.5,4.26-9.83,7.58-15.97,9.95-6.14,2.38-12.65,3.56-19.53,3.56s-13.39-1.19-19.53-3.56c-6.14-2.37-11.47-5.69-15.97-9.95-4.51-4.26-8.09-9.35-10.75-15.29-2.66-5.94-3.99-12.38-3.99-19.35,0-.05,0-.1,0-.15v-47.75h31.81v47.75h0c0,.05,0,.1,0,.15,0,5.4,1.7,9.89,5.1,13.45,3.4,3.56,7.84,5.34,13.33,5.34s9.95-1.78,13.39-5.34c3.44-3.56,5.16-8.04,5.16-13.45,0-.05,0-.1,0-.15v-47.75h31.69v47.75Z"/><path class="cls-1" d="M327.62,575.06h-33.3v-66.6h-35.22v-29.46h103.61v29.46h-35.09v66.6Z"/><path class="cls-1" d="M452.37,575.06h-40.09c-7.09,0-13.66-1.26-19.72-3.78-6.06-2.52-11.29-5.95-15.69-10.31-4.4-4.35-7.86-9.46-10.37-15.3-2.52-5.85-3.78-12.06-3.78-18.63,0-6.57,1.26-12.78,3.78-18.64,2.52-5.85,5.98-10.93,10.37-15.24,4.4-4.31,9.63-7.75,15.69-10.31,6.06-2.56,12.64-3.84,19.72-3.84h40.09v29.46h-31.76c-6.41,0-11.7,1.49-15.88,4.48-4.18,2.99-6.28,7.68-6.28,14.09s2.09,11,6.28,14.02c4.18,3.03,9.48,4.55,15.88,4.55h31.76v29.46Z"/><path class="cls-1" d="M489.74,575.06h-33.3v-96.06h33.3v32.02h35.73v-32.02h33.3v96.06h-33.3v-32.79h-35.73v32.79Z"/><path class="cls-1" d="M148.63,695.06h-46.49c-7.68,0-14.73-1.26-21.13-3.78-6.4-2.52-11.89-5.95-16.46-10.31-4.55-4.33-8.19-9.54-10.69-15.3-2.56-5.85-3.84-12.06-3.84-18.63s1.28-12.78,3.84-18.64c2.49-5.75,6.13-10.94,10.69-15.24,4.57-4.31,10.05-7.75,16.46-10.31,6.4-2.56,13.45-3.84,21.13-3.84h46.49v29.46h-41.37c-6.4,0-11.7,1.62-15.88,4.87-4.18,3.25-6.28,7.81-6.28,13.7s2.09,10.46,6.28,13.7c4.18,3.25,9.48,4.87,15.88,4.87h8.07v-27.66h33.3v57.12Z"/><path class="cls-1" d="M251.61,695.04h-39.45l-26.26-36.37v36.37h-33.3v-34.2c0-5.64,1.86-10.44,5.57-14.41,3.71-3.97,8.77-5.96,15.18-5.96h39.19c2.61,0,4.74-3.41,4.74-6.02s-2.13-6.02-4.74-6.02h-72.75v-29.46h78.51c5.46,0,10.29,.88,14.47,2.63,4.18,1.75,7.66,4.03,10.44,6.85,2.75,2.77,4.88,6.09,6.28,9.73,1.39,3.55,2.1,7.33,2.11,11.14,0,3.51-.59,6.99-1.73,10.31-1.13,3.32-2.86,6.41-5.12,9.09-2.26,2.69-5.1,4.97-8.52,6.85-3.42,1.88-7.34,3.12-11.78,3.71l27.15,35.73Z"/><path class="cls-1" d="M373.72,695.06h-35.19l-7.19-19.08h-33.94l-7.07,19.08h-34.66l28.15-70.57c3.41-8.45,7.71-14.81,12.87-19.08,5.17-4.27,11.25-6.4,18.25-6.4s13.08,2.13,18.25,6.4c5.16,4.27,9.41,10.63,12.74,19.08l27.78,70.57Zm-67.1-47.39h15.24l-7.68-18.06-7.56,18.06Z"/><path class="cls-1" d="M488.29,598.96v72.62c0,3.93-.62,7.37-1.86,10.31-1.24,2.95-2.86,5.38-4.87,7.3-2.03,1.94-4.46,3.42-7.11,4.36-2.71,.98-5.57,1.48-8.45,1.47-4.61,0-8.6-1-11.98-3.01-3.37-2.01-6.94-5.19-10.69-9.54l-16.01-18.48-16.39-18.47v49.5h-33.3v-72.62c0-3.93,.62-7.37,1.86-10.31,1.24-2.95,2.86-5.38,4.87-7.3,2.03-1.94,4.46-3.42,7.11-4.35,2.71-.98,5.57-1.48,8.45-1.47,4.61,0,8.6,1,11.97,3.01,3.37,2.01,6.94,5.19,10.69,9.54l3.26,3.77v-.02c1.26,1.16,2.42,2.32,3.39,3.42l25.74,29.02v-48.73h33.3Z"/><path class="cls-1" d="M538.07,695.06h-45.72v-96.06h44.44c8.28,0,15.9,1.19,22.86,3.58,6.96,2.39,12.87,5.7,17.74,9.93,4.82,4.16,8.7,9.29,11.4,15.05,2.73,5.81,4.1,12.08,4.1,18.83s-1.22,13.09-3.65,19.02c-2.39,5.87-6.01,11.16-10.63,15.5-4.65,4.4-10.4,7.86-17.22,10.37-6.83,2.52-14.6,3.78-23.31,3.78Zm-12.42-29.46h9.61c3.1,.01,6.19-.31,9.22-.96,2.9-.64,5.42-1.71,7.56-3.2,2.15-1.51,3.9-3.5,5.12-5.83,1.28-2.39,1.92-5.34,1.92-8.84,0-3.07-.64-5.76-1.92-8.07-1.26-2.28-3.01-4.25-5.12-5.76-2.14-1.54-4.66-2.67-7.56-3.39-3.02-.74-6.11-1.11-9.22-1.09h-9.61v37.14Z"/><path class="cls-1" d="M657.02,695.06h-32.02v-96.06h64.04c5.46,0,10.2,.88,14.22,2.63,4.01,1.75,7.34,4.08,9.99,6.98,2.63,2.87,4.63,6.25,5.89,9.93,1.27,3.64,1.92,7.48,1.92,11.33-.01,3.92-.66,7.81-1.92,11.53-1.25,3.8-3.26,7.3-5.89,10.31-2.65,3.03-5.98,5.49-9.99,7.36-4.01,1.88-8.75,2.82-14.22,2.82h-32.02v33.17Zm0-58.79h25.55c3.21,0,5.82-2.61,5.83-5.83-.01-3.21-2.61-5.82-5.83-5.83h-25.55v11.65Z"/><path class="cls-1" d="M824.06,695.06h-39.45l-26.26-36.37v36.37h-33.3v-96.06h65.7c5.46,0,10.29,.88,14.47,2.63,4.18,1.75,7.66,4.03,10.44,6.85,2.75,2.77,4.88,6.09,6.28,9.73,1.39,3.55,2.1,7.33,2.11,11.14,0,3.51-.59,6.99-1.73,10.31-1.13,3.32-2.86,6.41-5.12,9.09-2.26,2.69-5.1,4.97-8.52,6.85-3.42,1.88-7.34,3.12-11.78,3.71l27.15,35.73Zm-66.98-69.54v11.91h26.7c3.29-.01,5.95-2.67,5.96-5.96-.01-3.29-2.67-5.95-5.96-5.96h-26.7Z"/><path class="cls-1" d="M861.45,695.06h-33.3v-96.06h33.3v96.06Z"/><path class="cls-1" d="M907.25,695.06h-41.75l38.68-48.54-38.68-47.51h42.39l18.95,23.18,18.44-23.18h41.37l-38.68,48.67,39.06,47.39h-42.65l-18.95-23.31-18.19,23.31Z"/></g></g><g id="Racing_Line"><path class="cls-1" d="M1068.84,212.76h-101.54l-2.5,2.5h92.04c46.39,0,84,37.61,84,84v372c0,46.39-37.61,84-84,84H490.55l-2.5,2.5h580.79c46.39,0,84-37.61,84-84V296.76c0-46.39-37.61-84-84-84Z"/><path class="cls-1" d="M1068.84,193.18h-81.95l-2.5,2.5h72.45c57.44,0,104.01,46.57,104.01,104.01v371.15c0,57.44-46.57,104.01-104.01,104.01H470.97l-2.5,2.5h600.37c57.44,0,104.01-46.57,104.01-104.01V297.18c0-57.44-46.57-104.01-104.01-104.01Z"/><path class="cls-1" d="M1068.84,174.84h-63.62l-2.5,2.5h54.12c68.48,0,123.99,55.51,123.99,123.99v367.86c0,68.48-55.51,123.99-123.99,123.99H452.64l-2.5,2.5h618.71c68.48,0,123.99-55.51,123.99-123.99V298.83c0-68.48-55.51-123.99-123.99-123.99Z"/><path class="cls-1" d="M1059.17,155.26h-46.99l-2.67,2.5h36.86c84.87,0,153.67,64.47,153.67,144v367c0,79.53-68.8,144-153.67,144H378.03v2.5h681.14c84.87,0,153.67-64.47,153.67-144V299.26c0-79.53-68.8-144-153.67-144Z"/></g></svg>