<?xml version="1.0" encoding="UTF-8"?>
<svg version="1.1" viewBox="0 0 179 40" xmlns="http://www.w3.org/2000/svg" xmlns:xlink="http://www.w3.org/1999/xlink">
    <defs>
        <polygon id="b" points="0.021252 39.86 178.96 39.86 178.96 0.20936 0.021252 0.20936"/>
    </defs>
    <g fill="none" fill-rule="evenodd">
        <g transform="translate(-1686 -42)">
            <g transform="translate(1686 42)">
                <g fill="#fff">
                    <path d="m156.74 8.5929c2.4379-0.011491 4.4511-1.8727 4.7306-4.2632h-4.7306v4.2632"/>
                    <path
                        d="m62.947 18.284l-2.4666-0.5979c-0.65738-0.1774-1.1784-0.37634-1.5613-0.59826-0.83802-0.48263-0.66269-1.4472 0.1144-1.8774 1.0435-0.576 2.3437-0.45678 3.3868 0.049915 0.59221 0.288 1.0417 0.75375 1.3491 1.3958l3.7155-1.5283c-0.5699-1.3287-1.4586-2.2975-2.6635-2.9076-2.0196-1.0191-4.5308-1.1922-6.6918-0.56486-0.80083 0.23306-1.4965 0.56486-2.0883 0.99686-0.59115 0.432-1.0569 0.95844-1.3976 1.5782-0.64215 1.1728-0.72043 2.796-0.081818 3.9871 0.28442 0.53111 0.6464 0.98609 1.0845 1.3624 0.43884 0.3767 0.92621 0.68624 1.4635 0.93007 0.53731 0.24383 1.0573 0.42087 1.5623 0.53147l2.2686 0.49843c0.94215 0.22192 1.6059 0.47042 1.9899 0.74729 0.81146 0.58713 0.69811 1.6023-0.11547 2.1097-1.149 0.71892-2.8636 0.53829-3.9624-0.18242-0.6248-0.40937-1.1235-1.0353-1.4961-1.8774l-3.8472 1.6616c0.21925 0.57636 0.53696 1.1459 0.95384 1.7108 0.41618 0.56522 0.92586 1.0633 1.529 1.4949 0.60284 0.432 1.3155 0.78068 2.1372 1.0468 1.7685 0.57205 3.8628 0.5663 5.6232-0.032678 0.84333-0.288 1.5673-0.68157 2.1701-1.1804 0.60248-0.49807 1.069-1.068 1.3976-1.7104 0.86033-1.6827 0.55679-3.7515-0.70697-5.1337-0.80083-0.87477-2.0224-1.5111-3.6666-1.9101"/>
                    <path
                        d="m81.329 19.812c0 0.66505-0.082173 1.291-0.24652 1.877-0.16435 0.58749-0.40626 1.0967-0.72362 1.5287-0.31806 0.43164-0.70166 0.77566-1.1511 1.0299-0.44982 0.25532-0.97049 0.38208-1.562 0.38208-0.98607 0-1.738-0.28225-2.2523-0.84712-0.5157-0.56486-0.77249-1.4335-0.77249-2.6078v-9.3366h-4.308v9.8677c0 2.105 0.49799 3.7878 1.4965 5.05 0.9967 1.263 2.5158 1.8943 4.5542 1.8943 1.0955 0 2.0717-0.23844 2.927-0.71461 0.85396-0.47581 1.7961-1.1236 2.3008-1.9435v2.1262h4.0449v-16.28h-4.3073v7.9738"/>
                    <path
                        d="m113.27 13.134c-0.47143-0.57564-1.069-1.0245-1.7919-1.3459-1.8032-0.79828-4.2461-0.66721-5.9193 0.39932-0.92055 0.58677-1.8974 1.2902-2.4014 2.1094-0.35065-0.84137-0.67863-1.5499-1.512-2.1262-1.7047-1.1778-4.1972-1.1294-5.9678-0.13251-0.815 0.45785-1.7858 1.0554-2.3182 1.7887v-1.9887h-4.0452v16.28h4.308v-7.4237c0-0.81228 0.026564-1.6181 0.23023-2.411 0.15337-0.5979 0.37296-1.1132 0.65809-1.5448 0.28406-0.43164 0.63578-0.7753 1.052-1.0299 0.92515-0.56594 2.3642-0.53542 3.2398 0.13718 0.84156 0.64638 1.035 1.7977 1.035 2.8035v9.4688h4.3077v-7.4237c0-0.81372 0.029398-1.6195 0.24652-2.411 0.16434-0.5979 0.39492-1.1132 0.69103-1.5448 0.29575-0.43164 0.66234-0.7753 1.1012-1.0299 0.91842-0.53255 2.3139-0.5602 3.1835 0.10629 0.84688 0.64925 1.0254 1.8275 1.0254 2.8344v9.4688h4.3077v-9.6878c0-1.0888-0.048171-2.1672-0.36163-3.2201-0.2412-0.80833-0.59788-1.5-1.0686-2.0763"/>
                    <path
                        d="m121.81 17.885c0.33648-1.1236 1.0505-2.0878 2.1014-2.6125 1.0484-0.52321 2.4248-0.56917 3.5051-0.11168 0.47178 0.1993 0.86636 0.45426 1.1841 0.76381 0.31771 0.31062 0.55892 0.64279 0.72326 0.99722 0.16434 0.35443 0.25785 0.67583 0.27981 0.96311h-7.7937zm9.8983-4.1365c-0.67934-0.76452-1.5237-1.3621-2.5321-1.7941-2.1053-0.90134-4.7363-0.90242-6.8232 0.050274-1.019 0.46504-1.9024 1.0909-2.6469 1.877-0.74628 0.78643-1.3268 1.7054-1.743 2.7579-0.84652 2.1384-0.85112 4.6769 0.016647 6.8107 0.42716 1.0522 1.024 1.9657 1.7919 2.741 0.76683 0.77566 1.6714 1.3786 2.7135 1.8109 2.4925 1.0346 5.7266 0.90996 8.0225-0.58174 1.2609-0.81911 2.2636-1.8935 3.0096-3.2226l-3.5848-1.7941c-0.37296 0.6866-0.88229 1.2572-1.5287 1.7108-1.4979 1.0522-3.8479 0.88698-5.2612-0.23234-0.4059-0.32139-0.74558-0.72-1.0197-1.1965-0.27414-0.47545-0.45478-1.0464-0.54191-1.7108h12.133c0-0.13287 0.010626-0.25424 0.032232-0.36521 0-0.11096 0.011334-0.2327 0.034002-0.36592 0-1.2902-0.11299-2.5579-0.52668-3.7871-0.351-1.041-0.86565-1.9438-1.5453-2.7083z"/>
                    <mask id="a" fill="white">
                        <use xlink:href="#b"/>
                    </mask>
                    <polygon points="156.7 28.118 161 28.118 161 11.838 156.7 11.838" mask="url(#a)"/>
                    <path
                        d="m174.44 22.919c-0.18595 0.45426-0.44876 0.85286-0.78843 1.1965-0.34002 0.34366-0.7516 0.62017-1.2329 0.83096-1.0973 0.47796-2.4546 0.446-3.4371-0.28297-1.1185-0.8306-1.002-2.4311 0.03294-3.2728 1.0994-0.89165 2.8608-0.80833 4.1441-0.46468 0.5366 0.144 1.0566 0.33755 1.5609 0.58174 0 0.48658-0.092798 0.95772-0.27946 1.4113m2.5491-9.8343c-1.3743-1.2378-3.2448-1.6792-5.038-1.7621-1.8712-0.086902-3.7651 0.21295-5.3951 1.1922-0.883 0.53039-1.6534 1.2364-2.293 2.0483l3.124 2.1596c0.74735-0.91535 1.7387-1.6023 2.9047-1.8156 1.177-0.21546 2.4666-0.013287 3.4087 0.76919 0.67899 0.56486 1.019 1.2791 1.019 2.1431v0.49807c-0.43778-0.1774-0.99705-0.34869-1.6764-0.51495-1.6562-0.40507-3.5858-0.38316-5.2123 0.13287-0.80048 0.25496-1.4961 0.62591-2.0883 1.1132-0.59115 0.48766-1.0512 1.069-1.3799 1.7442-0.67297 1.3825-0.65951 3.1385-0.033294 4.5351 0.30638 0.6866 0.73389 1.2741 1.2818 1.7607 0.54723 0.48802 1.1897 0.8701 1.9236 1.1466 1.562 0.58928 3.633 0.66039 5.0972-0.24957 0.71122-0.44277 1.5839-0.97388 2.0876-1.5944v1.7276h4.2425v-4.8482c0-1.6393 0.006729-3.2789 0-4.9179-0.008147-1.9417-0.49233-3.9339-1.9729-5.268"
                        mask="url(#a)"/>
                    <path
                        d="m148.34 21.939c-0.2412 0.57636-0.55856 1.0633-0.95278 1.4619-0.39492 0.3986-0.85006 0.70348-1.3647 0.91355-1.0328 0.4223-2.2289 0.42553-3.2557-0.016519-0.51535-0.22121-0.96942-0.53111-1.3651-0.93079-0.39422-0.39824-0.71228-0.88482-0.95278-1.4612-0.49835-1.1893-0.498-2.6645 0-3.8539 0.2405-0.576 0.55856-1.0637 0.95278-1.4623 0.39563-0.39896 0.84971-0.7085 1.3651-0.93007 1.0275-0.44277 2.2222-0.4381 3.2557-0.016519 0.51464 0.21079 0.96978 0.51531 1.3647 0.91319 0.39422 0.39896 0.71157 0.88626 0.95278 1.4619 0.50295 1.2001 0.50366 2.7209 0 3.9207zm0.099174-10.466v2.3259c-0.39492-0.6866-1.0084-1.2737-1.8411-1.7607-1.7848-1.0428-4.2032-0.93151-6.0347-0.08367-0.93153 0.432-1.754 1.0299-2.4659 1.7941-0.71264 0.76452-1.2779 1.6781-1.6937 2.7414-0.8536 2.1797-0.8536 4.7976 0 6.9773 0.41582 1.0629 0.98111 1.9765 1.6937 2.7403 0.71193 0.76452 1.5344 1.3624 2.4659 1.7948 1.8308 0.8482 4.2503 0.9588 6.0347-0.083311 0.83271-0.48694 1.4462-1.0741 1.8411-1.761v1.9603h4.308v-23.789h-4.308v7.1432z"
                        mask="url(#a)"/>
                    <path
                        d="m26.189 35.687h-21.838c1.0024-4.3049 4.8248-7.4452 9.2986-7.4657l12.54 0.0043092c3.5827 0 6.9907-1.3606 9.5866-3.7817 0.089256 0.51459 0.13636 1.0371 0.14345 1.5646-0.068005 5.3258-4.4324 9.6785-9.73 9.6785m-19.919-15.657c1.8407-2.3449 4.6452-3.7264 7.6286-3.7264h12.362c2.9841 0 5.7875 1.3815 7.6275 3.7264-1.8025 2.2964-4.5425 3.6779-7.4558 3.7296h-12.714c-2.9012-0.049197-5.643-1.431-7.4487-3.7296m-2.1021-5.969c0.069068-5.3255 4.4345-9.6778 9.7307-9.6778h21.839c-1.0024 4.3045-4.8245 7.4445-9.2986 7.4661l-12.539-0.0050274c-3.5837 0-6.9921 1.3606-9.5876 3.782-0.088548-0.51495-0.13707-1.0374-0.1438-1.5653m29.149 0.043092c3.4459-2.0573 5.8311-5.5495 6.543-9.4874l0.22704-4.4069h-26.224c-7.4852 0-13.702 6.1492-13.858 13.714l0.029752 0.97568c0.31063 4.6123 2.8204 8.7132 6.736 11.066-3.4466 2.0576-5.8311 5.5506-6.543 9.4896l-0.22704 4.4054h26.224c7.4852 0 13.702-6.1503 13.859-13.716l-0.029752-0.97603c-0.31027-4.6112-2.8208-8.7121-6.7364-11.065"
                        mask="url(#a)"/>
                </g>
            </g>
        </g>
    </g>
</svg>
